<?xml version="1.0" encoding="utf-8"?>
<svg version="1.1" id="Layer_1" xmlns="http://www.w3.org/2000/svg" xmlns:xlink="http://www.w3.org/1999/xlink" x="0px" y="0px"
	 viewBox="0 0 1315.55 1671.576" enable-background="new 0 0 1315.55 1671.576" xml:space="preserve">
<g>
	<path stroke="#000000" stroke-width="0.5" d="M528.637,35.788c10.104,0.094,20.052,2.193,30.093,3.196
		c16.323,2.162,32.725,3.76,48.955,6.47c6.438-0.251,11.859-5.17,18.423-5.091c5.624,0.016,11.154,1.285,16.715,2.115
		c2.115,3.822,4.339,7.566,6.658,11.279c6.548-2.804,13.049-6.72,20.459-6.204c18.25,0.376,36.547-0.454,54.766,0.392
		c11.06,3.337,20.584,10.543,31.55,14.224c6.987-1.128,13.363-4.574,20.13-6.611c9.086,5.264,17.953,10.95,27.493,15.399
		c8.365,4.355,17.812,7.519,23.921,15.148c5.311,6.501,12.532,11.624,16.84,18.83c-0.627,13.864-3.478,27.571-4.48,41.435
		c-2.632,0.376-5.123,1.316-7.723,1.676c3.713,8.397,4.982,17.545,7.175,26.396c1.66,7.253,4.089,14.741,2.35,22.245
		c-3.54,16.48-8.178,32.709-11.687,49.221c-0.188-0.783-0.548-2.35-0.721-3.133c0.282-19.441,0.721-38.897,1.363-58.338
		c0.642-10.84-2.867-21.368-2.679-32.208c-1.958,1.206-3.807,3.196-6.298,2.914c-10.543-0.58-21.007-2.146-31.535-2.835
		c-7.19-0.736-14.538-2.475-21.697-0.611c-19.629,4.465-39.273,8.82-58.949,13.081c-7.786,1.347-12.517,8.318-18.328,12.955
		c-19.472,16.997-38.239,34.84-58.166,51.304c8.021-25.597,17.812-50.599,26.067-76.118c1.802-4.762,3.399-9.603,4.762-14.522
		c-8.491,7.535-15.524,16.48-23.561,24.469c-2.788,2.976-6.705,4.355-10.37,5.859c-0.251,6.454-0.454,12.987-2.115,19.268
		c-4.355,7.989-7.237,16.668-11.138,24.877c-5.107,10.903-10.198,21.822-15.242,32.756c0.031-0.956,0.125-2.882,0.157-3.838
		c0.924-8.036,1.457-16.088,2.24-24.125c-2.851-3.008-5.561-6.172-8.679-8.882c-3.149-2.929-7.833-3.18-10.982-6.063
		c-3.885-3.462-7.488-7.237-11.342-10.715c-1.661-1.692-3.337-3.368-4.966-5.029c-4.339,5.342-10.386,10.104-11.42,17.342
		c-2.13,11.263-4.292,22.543-7.707,33.508l-0.94-0.674c-0.329-0.595-0.987-1.786-1.316-2.381
		c-8.162,15.242-13.566,31.863-21.932,46.996c7.175-30.908,14.13-61.863,21.336-92.755c1.41-7.472,4.371-14.867,3.478-22.59
		c-5.875,6.235-9.869,13.864-14.851,20.772c-15.634,22.417-30.266,45.555-46.197,67.753c12.36-40.793,25.864-81.257,37.769-122.175
		c-16.182,6.595-31.581,15.055-48.046,20.913c3.713-4.48,8.162-8.224,12.517-12.047c12.799-11.78,25.707-23.451,38.662-35.059
		c9.697-8.24,16.339-19.284,23.263-29.796c-17.436-3.556-34.903-7.049-52.276-10.903c27.039-5.937,54.907-7.692,81.946-13.692
		C564.448,46.817,546.417,41.663,528.637,35.788 M652.143,63.375c-12.83,1.645-25.66,3.352-38.506,4.966
		c-4.277,0.627-9.055,0.423-12.564,3.337c-9.478,6.752-19.002,13.41-28.542,20.067c-5.624,3.681-9.18,9.556-13.002,14.929
		c6.235-1.817,12.282-4.167,18.517-5.984c-4.48,9.822-10.276,18.971-14.678,28.793c5.593-6.172,10.135-13.222,15.947-19.222
		c-2.444,11.122-6,21.979-8.334,33.117c7.41-7.801,13.175-17.044,20.6-24.83c15.07-8.585,30.783-16.041,45.9-24.563
		c-9.963-0.282-19.942,0.47-29.858-0.266c15.446-5.029,31.722-7.425,47.341-12c0.768-0.564,2.272-1.661,3.023-2.224
		c-10.684-2.209-21.618-2.835-32.349-4.7c12.031-4.433,24.767-6.752,36.72-11.342C659.099,61.62,655.558,63.015,652.143,63.375
		 M746.183,75.939c-17.263,6.282-34.84,11.812-51.978,18.438c-4.418,4.292-8.397,9.023-12.423,13.676
		c12-2.976,23.796-6.752,35.796-9.681c-14.068,9.807-29.169,18.109-43.346,27.759c13.457-2.757,26.835-5.969,40.307-8.741
		c-8.052,8.334-16.903,15.885-25.018,24.14c11.467-3.681,22.605-8.397,34.135-11.937c-8.24,6.297-17.718,10.793-26.005,17.06
		c24.861-6.392,49.926-12.235,74.615-19.253c-9.697-1.3-19.425-2.209-29.122-3.337c15.524-3.399,31.55-3.979,47.169-6.94
		c-6.078-4.151-12.595-7.598-18.799-11.514c9.008-1.269,18.047-2.381,27.07-3.681c-12.705-4.136-26.13-5.922-38.615-10.653
		c11.843-1.285,23.733-2.193,35.592-3.54c-7.911-3.055-16.606-3.446-24.376-6.783c4.465-1.081,9.07-1.598,13.551-2.804
		c-7.237-2.146-14.929-1.332-22.323-2.334C757.023,75.594,751.368,73.73,746.183,75.939 M787.414,76.816
		C784.939,81.469,792.631,77.067,787.414,76.816z"/>
	<path fill="#FEFEFE" stroke="#FEFEFE" stroke-width="0.5" d="M652.143,63.375c3.415-0.36,6.956-1.755,10.214,0.078
		c-11.953,4.59-24.689,6.908-36.72,11.342c10.731,1.864,21.665,2.491,32.349,4.7c-0.752,0.564-2.256,1.661-3.023,2.224
		c-15.618,4.574-31.895,6.971-47.341,12c9.916,0.736,19.895-0.016,29.858,0.266c-15.117,8.522-30.83,15.979-45.9,24.563
		c-7.425,7.786-13.19,17.028-20.6,24.83c2.334-11.138,5.89-21.994,8.334-33.117c-5.812,6-10.355,13.049-15.947,19.222
		c4.402-9.822,10.198-18.971,14.678-28.793c-6.235,1.817-12.282,4.167-18.517,5.984c3.822-5.373,7.378-11.248,13.002-14.929
		c9.54-6.658,19.065-13.316,28.542-20.067c3.509-2.914,8.287-2.71,12.564-3.337C626.483,66.727,639.313,65.02,652.143,63.375z"/>
	<path fill="#FEFEFE" stroke="#FEFEFE" stroke-width="0.5" d="M746.183,75.939c5.185-2.209,10.84-0.345,16.229-0.125
		c7.394,1.003,15.086,0.188,22.323,2.334c-4.48,1.206-9.086,1.723-13.551,2.804c7.77,3.337,16.464,3.728,24.376,6.783
		c-11.859,1.347-23.749,2.256-35.592,3.54c12.486,4.731,25.911,6.517,38.615,10.653c-9.023,1.3-18.062,2.412-27.07,3.681
		c6.204,3.916,12.72,7.363,18.799,11.514c-15.618,2.961-31.644,3.54-47.169,6.94c9.697,1.128,19.425,2.036,29.122,3.337
		c-24.689,7.018-49.753,12.861-74.615,19.253c8.287-6.266,17.765-10.762,26.005-17.06c-11.53,3.54-22.668,8.256-34.135,11.937
		c8.115-8.256,16.966-15.806,25.018-24.14c-13.472,2.773-26.851,5.984-40.307,8.741c14.177-9.65,29.279-17.953,43.346-27.759
		c-12,2.929-23.796,6.705-35.796,9.681c4.026-4.653,8.005-9.384,12.423-13.676C711.343,87.75,728.92,82.221,746.183,75.939z"/>
	<path fill="#696968" stroke="#696968" stroke-width="0.5" d="M787.414,76.816C792.631,77.067,784.939,81.469,787.414,76.816z"/>
	<path fill="#BC755F" stroke="#BC755F" stroke-width="0.5" d="M640.535,162.866c8.036-7.989,15.07-16.934,23.561-24.469
		c-1.363,4.919-2.961,9.76-4.762,14.522c-8.256,7.566-16.997,14.851-23.232,24.266c-2.507,3.744-5.264,7.284-8.052,10.809
		c1.661-6.282,1.864-12.814,2.115-19.268C633.83,167.221,637.747,165.843,640.535,162.866z"/>
	<path fill="#F29F81" stroke="#F29F81" stroke-width="0.5" d="M768.71,151.697c7.159-1.864,14.506-0.125,21.697,0.611
		c6.298,17.06,20.631,29.091,32.584,42.14c4.371,4.402,3.102,11.013,3.196,16.621c-0.611,10.245,2.397,20.193,2.804,30.391
		l-0.83,1.473c-4.7,6.705-4.026,15.195-4.856,22.966c-1.097,10.935-1.003,22.182-4.715,32.662
		c-3.321,9.619-5.812,19.488-8.303,29.357c-3.18,14.005-12.971,25.033-18.642,37.989c-12.109,18.219-29.529,32.318-41.764,50.505
		c-13.88,10.198-28.323,19.644-42.391,29.608c-5.373,4.465-12.517,2.663-18.752,1.723c-5.953-1.034-11.984-1.488-17.859-2.82
		c-4.621-0.862-7.488-4.888-10.371-8.193c-11.154-13.864-23.059-27.117-34.245-40.965c-10.668-14.24-19.159-29.968-29.78-44.239
		c3.807,11.859,5.217,24.767,11.796,35.545c10.512,15.133,21.007,30.281,31.362,45.524c4.371,6.36,11.796,9.274,18.234,13.018
		c7.754,4.151,15.102,9.008,22.809,13.237c3.446,2.036,7.551,2.397,11.498,2.083c9.462-0.642,18.924-1.614,28.433-2.052
		c-0.376,8.068-4.825,14.898-7.457,22.292c-1.504,9.258-1.081,19.409,3.603,27.775c-14.036,2.835-28.057,9.102-42.594,5.718
		c-25.394-3.055-50.913-5.06-76.197-8.82c-19.989-4.919-39.211-12.532-58.996-18.188c-8.303-2.115-14.287-8.506-20.678-13.739
		c-9.462-7.88-18.924-15.744-28.386-23.592l-1.128-0.924c19.331-8.585,39.211-15.885,58.792-23.89
		c5.828-2.553,12.141-4.183,17.561-7.582c4.339-4.7,7.049-10.621,10.699-15.838c3.164-5.358,8.052-10.371,7.88-17.013
		c0.611-15.227,0.705-30.469,1.801-45.665c2.616,1.77,5.248,3.54,7.911,5.295c-1.316-18.094-2.225-36.688-9.869-53.45
		c-3.901,2.585-7.801,5.185-11.686,7.754c-2.851-1.144-5.687-2.318-8.522-3.446c-2.961-6.564-5.593-13.269-8.397-19.895
		c-2.804-7.034-5.906-13.942-8.647-20.976c-2.538-5.671,1.175-11.451,2.663-16.872c3.415-10.966,5.577-22.245,7.707-33.508
		c1.034-7.237,7.081-12,11.42-17.342c1.629,1.661,3.305,3.337,4.966,5.029c3.525,7.112,8.005,13.676,13.128,19.738
		c3.791,4.982,8.945,9.854,8.976,16.59c0.47,7.504,0.533,15.039,1.551,22.496c1.253-3.901,2.538-7.801,3.869-11.671
		c0.298,0.658,0.924,1.974,1.238,2.632c-0.031,0.956-0.125,2.882-0.157,3.838c5.044-10.934,10.136-21.853,15.242-32.756
		c3.901-8.209,6.783-16.887,11.138-24.877c2.789-3.525,5.546-7.065,8.052-10.809c6.235-9.415,14.976-16.699,23.232-24.266
		c-8.256,25.519-18.047,50.521-26.067,76.118c19.926-16.464,38.694-34.307,58.166-51.304c5.812-4.637,10.543-11.608,18.328-12.955
		C729.437,160.516,749.081,156.161,768.71,151.697 M554.36,237.731c5.216-9.901,9.744-20.506,10.449-31.817
		C556.913,214.562,555.769,226.656,554.36,237.731 M570.229,207.45c-0.705,4.825,0.031,9.634,1.347,14.303
		c1.723,5.201-1.52,10.183-2.977,15.039c2.914,1.41,5.514,3.337,7.754,5.702c3.102-2.6,6.454-5.013,8.914-8.287
		c0.799-4.59-2.334-8.412-4.997-11.749C576.307,217.868,574.098,212.103,570.229,207.45 M560.516,242.212
		c-0.439,4.59-1.473,9.274-0.627,13.88c1.238,4.809,4.073,8.992,6.579,13.222c1.676-2.177,3.65-4.104,5.311-6.329
		c3.133,0.251,6.297,0.251,9.462,0.439c-2.773-4.715-7.551-7.096-12.924-7.347C565.576,251.533,563.085,246.849,560.516,242.212z"/>
	<path fill="#BD755D" stroke="#BD755D" stroke-width="0.5" d="M821.941,155.143c2.491,0.282,4.339-1.708,6.298-2.914
		c-0.188,10.84,3.321,21.368,2.679,32.208c-0.642,19.441-1.081,38.897-1.363,58.338l-0.564-1.316
		c-0.407-10.198-3.415-20.146-2.804-30.391c-0.094-5.608,1.175-12.219-3.196-16.621c-11.953-13.049-26.286-25.08-32.584-42.14
		C800.934,152.997,811.398,154.564,821.941,155.143z"/>
	<path fill="#BD745B" stroke="#BD745B" stroke-width="0.5" d="M573.064,192.004c3.854,3.478,7.457,7.253,11.342,10.715
		c3.149,2.882,7.833,3.133,10.982,6.063c3.117,2.71,5.828,5.875,8.679,8.882c-0.783,8.036-1.316,16.088-2.24,24.125
		c-0.313-0.658-0.94-1.974-1.238-2.632c-1.332,3.869-2.616,7.77-3.869,11.671c-1.018-7.457-1.081-14.992-1.551-22.496
		c-0.031-6.736-5.185-11.608-8.976-16.59C581.069,205.68,576.589,199.116,573.064,192.004z"/>
	<path fill="#C3785C" stroke="#C3785C" stroke-width="0.5" d="M554.36,237.731c1.41-11.075,2.553-23.169,10.449-31.817
		C564.104,217.225,559.576,227.831,554.36,237.731z"/>
	<path fill="#BD755B" stroke="#BD755B" stroke-width="0.5" d="M570.229,207.45c3.869,4.653,6.078,10.418,10.042,15.007
		c2.663,3.337,5.796,7.159,4.997,11.749c-2.46,3.274-5.812,5.687-8.914,8.287c-2.24-2.365-4.841-4.292-7.754-5.702
		c1.457-4.856,4.7-9.838,2.977-15.039C570.26,217.084,569.524,212.275,570.229,207.45z"/>
	<path fill="#BE745B" stroke="#BE745B" stroke-width="0.5" d="M560.516,242.212c2.569,4.637,5.06,9.321,7.801,13.864
		c5.373,0.251,10.151,2.632,12.924,7.347c-3.164-0.188-6.329-0.188-9.462-0.439c-1.661,2.224-3.634,4.151-5.311,6.329
		c-2.506-4.23-5.342-8.412-6.579-13.222C559.044,251.486,560.078,246.802,560.516,242.212z"/>
	<path fill="#BD765D" stroke="#BD765D" stroke-width="0.5" d="M823.304,265.898c0.83-7.77,0.157-16.261,4.856-22.966
		c1.817,10.183,0.517,20.49,0.501,30.751c0.329,16.746-6.611,32.365-10.073,48.5c-2.929,9.164-3.055,20.036-10.386,27.101
		c-5.514,5.546-9.948,12.25-16.558,16.621c5.671-12.955,15.462-23.984,18.642-37.989c2.491-9.869,4.982-19.738,8.303-29.357
		C822.301,288.08,822.207,276.832,823.304,265.898z"/>
	<path fill="#020201" stroke="#020201" stroke-width="0.5" d="M554.391,274.389l0.564,1.285c2.804,6.626,5.436,13.331,8.397,19.895
		c-3.869,11.592-6.25,23.639-10.527,35.091c-0.564-9.07,0.266-18.125,0.235-27.195C553.263,293.767,552.981,284.007,554.391,274.389
		z"/>
	<path fill="#BC755D" stroke="#BC755D" stroke-width="0.5" d="M571.874,299.015c3.885-2.569,7.786-5.17,11.686-7.754
		c7.645,16.762,8.553,35.357,9.869,53.45c-2.663-1.755-5.295-3.525-7.911-5.295c-0.235-7.112,1.535-14.882-2.318-21.352
		C579.753,311.531,576.229,304.999,571.874,299.015z"/>
	<path fill="#BD755D" stroke="#BD755D" stroke-width="0.5" d="M596.484,351.525c10.621,14.271,19.112,29.999,29.78,44.239
		c11.185,13.848,23.091,27.101,34.245,40.965c2.883,3.305,5.749,7.331,10.371,8.193c5.875,1.332,11.906,1.786,17.859,2.82
		c6.235,0.94,13.378,2.741,18.752-1.723c14.067-9.963,28.511-19.41,42.391-29.608c-3.509,10.84-9.948,20.381-14.224,30.908
		c10.214,7.77,21.775,13.535,32.083,21.164c-6.611,6.047-12.799,12.689-17.498,20.365c-3.133,4.606-5.593,9.807-9.728,13.645
		c-4.825,2.851-10.59,3.384-15.932,4.715c-2.632,0.548-5.232,1.128-7.817,1.739c-4.684-8.365-5.107-18.517-3.603-27.775
		c2.632-7.394,7.081-14.224,7.457-22.292c-9.509,0.439-18.971,1.41-28.433,2.052c-3.948,0.313-8.052-0.047-11.498-2.083
		c-7.707-4.23-15.054-9.086-22.809-13.237c-6.438-3.744-13.864-6.658-18.234-13.018c-10.355-15.242-20.851-30.391-31.362-45.524
		C601.701,376.292,600.291,363.384,596.484,351.525z"/>
	<path fill="#2D8092" stroke="#2D8092" stroke-width="0.5" d="M477.928,448.51c4.042-1.379,8.647-1.05,11.984,1.817
		c9.462,7.848,18.924,15.712,28.386,23.592c6.392,5.232,12.376,11.624,20.678,13.739c19.785,5.655,39.007,13.269,58.996,18.188
		c25.284,3.76,50.803,5.765,76.197,8.82c14.537,3.384,28.558-2.882,42.594-5.718c2.585-0.611,5.185-1.191,7.817-1.739
		c12.893,11.655,24.955,24.203,37.722,35.999c4.48,4.794,11.42,3.509,17.295,3.352c30.83-1.488,61.597-4.01,92.317-7.002
		c15.728-2.553,31.018-7.284,46.699-10.198c11.78,10.135,22.527,21.399,34.213,31.66c4.59,4.167,10.496,6.344,15.509,9.901
		c1.974,3.368,1.253,7.629,1.535,11.404c-0.564,20.334,0.689,40.699-1.175,60.986c-1.974,22.997-3.478,46.025-5.452,69.038
		c-1.629,16.449,2.225,32.694,3.885,48.986c1.661,15.869,4.59,31.613,5.232,47.576c-43.362-0.595-86.74-0.58-130.117-0.893
		c8.632-29.655,16.95-59.435,27.618-88.431c4.449-13.488,10.042-26.647,13.3-40.495c-8.616,14.083-14.553,29.592-22.041,44.271
		c-5.608,12.783-13.786,24.72-16.073,38.725c-2.867,15.321-5.326,30.736-8.851,45.947c-22.01-0.313-44.004,0.376-65.998-0.329
		c-10.057-0.298-20.13-0.345-30.172,0.047c-108.06-0.94-216.136-2.005-324.165-4.355c15.681-1.065,31.409-0.423,47.122-0.235
		l-0.031-1.441c-19.926,0.501-40.041-1.911-59.811,1.222c-2.522,0.063-5.044,0.125-7.535,0.157
		c3.227-12.313,8.632-23.874,12.83-35.858c3.133-8.271,1.394-17.185,0.627-25.707c-1.222-10.652-1.739-21.383-2.898-32.036
		c-0.846-7.974-5.969-14.428-9.885-21.117c-8.021-12.846-14.819-26.443-23.561-38.835c3.023,14.349,6.83,28.511,10.229,42.782
		c3.102,13.378,7.222,26.631,8.209,40.401c1.096,13.598,2.209,27.195,3.603,40.762c1.316,10.214-2.585,19.973-5.389,29.576
		c-19.018-0.517-38.067-0.266-57.054-1.614c-4.543-0.125-9.916-2.13-13.707,1.363c-5.044,4.167-12.141,8.475-11.373,16.041
		c-1.394,51.195-4.919,102.327-5.436,153.553c-0.58,35.028-2.553,69.993-3.65,105.006c-0.219,14.537-1.426,29.028-2.256,43.534
		c-3.65,0.063-7.3,0.125-10.934,0.157c-5.608-8.005-13.801-13.519-20.49-20.506c-5.655-5.765-12.407-10.606-16.856-17.42
		c-3.008-6.313-4.339-13.269-7.237-19.629c-3.384-7.488-2.413-15.853-2.898-23.812c-1.3-18.234-0.956-36.532-1.676-54.798
		c-0.94-12.94,4.465-25.018,6.58-37.55c1.833-11.013,6.438-21.603,6.016-32.929c-0.486-21.916-1.238-43.848-2.381-65.748
		c-0.454-10.543,0.611-21.258-2.005-31.597c-3.07-12.235-2.334-24.939-1.817-37.393c0.219-8.397,2.647-16.527,2.882-24.908
		c0.392-12.141,3.243-24.046,3.368-36.187c0.188-12.658,3.258-25.033,3.478-37.675c0.125-8.929,2.569-17.592,2.882-26.49
		c0.329-5.514,0.031-11.279,2.428-16.402c4.731-10.715,10.402-20.96,15.571-31.456c11.248-21.524,18.955-44.631,28.809-66.782
		c1.88-4.089,3.462-8.867,7.754-11.044c22.762-13.598,44.866-28.229,67.44-42.124c9.462-5.358,18.125-12.47,28.84-15.274
		C429.804,463.956,453.412,454.76,477.928,448.51z"/>
	<path fill="#134B58" stroke="#134B58" stroke-width="0.5" d="M767.739,468.483c3.775-1.206,7.817,0.548,11.592,1.238
		c19.018,5.248,38.208,9.822,57.257,14.914c14.177,3.995,28.965,6.219,42.422,12.407c16.073,6.94,32.24,13.66,48.312,20.616
		c6.156,2.82,13.895,4.277,17.42,10.746c8.992,14.929,17.859,29.952,27.399,44.537c3.916,7.645,10.731,14.381,11.028,23.404
		c1.535,36.563,1.708,73.173,3.227,109.752c0.219,19.879,1.723,39.743,1.614,59.638c-1.018,9.603-5.765,18.297-8.506,27.461
		c-2.287,5.248-2.506,11.812-7.143,15.713c-0.642-15.963-3.572-31.707-5.232-47.576c-1.66-16.292-5.514-32.537-3.885-48.986
		c1.974-23.013,3.478-46.041,5.452-69.038c1.864-20.287,0.611-40.652,1.175-60.986c-0.282-3.775,0.439-8.036-1.535-11.404
		c-5.013-3.556-10.919-5.734-15.509-9.901c-11.686-10.261-22.433-21.524-34.213-31.66c-15.681,2.914-30.971,7.645-46.699,10.198
		c-30.72,2.992-61.487,5.514-92.317,7.002c-5.875,0.157-12.814,1.441-17.295-3.352c-12.767-11.796-24.83-24.344-37.722-35.999
		c5.342-1.332,11.107-1.864,15.932-4.715c4.136-3.838,6.595-9.039,9.728-13.645C754.94,481.172,761.128,474.53,767.739,468.483z"/>
	<path fill="#124B58" stroke="#124B58" stroke-width="0.5" d="M372.719,649.545c8.741,12.391,15.54,25.989,23.561,38.835
		c3.916,6.689,9.039,13.143,9.885,21.117c1.159,10.652,1.676,21.383,2.898,32.036c0.768,8.522,2.506,17.436-0.627,25.707
		c-4.198,11.984-9.603,23.545-12.83,35.858c-2.099-0.016-4.183-0.016-6.235-0.031c2.804-9.603,6.705-19.363,5.389-29.576
		c-1.394-13.566-2.507-27.164-3.603-40.762c-0.987-13.77-5.107-27.023-8.209-40.401
		C379.549,678.056,375.742,663.894,372.719,649.545z"/>
	<path fill="#114B59" stroke="#114B59" stroke-width="0.5" d="M861.12,723.36c7.488-14.679,13.425-30.187,22.041-44.271
		c-3.258,13.848-8.851,27.007-13.3,40.495c-10.668,28.997-18.987,58.777-27.618,88.431c-2.036-0.016-4.057,0-6.047,0.016
		c3.525-15.211,5.984-30.626,8.851-45.947C847.335,748.08,855.512,736.143,861.12,723.36z"/>
	<path fill="#C8CCCF" stroke="#C8CCCF" stroke-width="0.5" d="M318.61,802.815c3.791-3.493,9.164-1.488,13.707-1.363
		c-4.95,5.091-10.668,9.321-16.323,13.582c29.717,0.768,59.466,0.611,89.199,1.363c28.73,1.065,57.508,0.752,86.254,1.457
		c39.117,1.253,78.265,0.893,117.381,2.193c36.563,0.266,73.126,1.285,109.689,1.849c43.863,0.219,87.727,1.88,131.605,2.005
		c34.464,1.144,68.959,1.128,103.439,1.77c39.978,1.253,79.988,1.034,119.966,2.146c2.35-4.324,4.684-8.663,6.94-13.049
		c-61.644-0.674-123.272-2.193-184.915-2.82c-20.866-1.363-41.78-0.674-62.662-1.379c-17.295,0.799-34.448-2.318-51.727-1.614
		c-13.707-0.36-27.54,1.112-41.137-1.206c10.042-0.392,20.114-0.345,30.172-0.047c21.994,0.705,43.988,0.016,65.998,0.329
		c1.99-0.016,4.01-0.031,6.047-0.016c43.378,0.313,86.755,0.298,130.117,0.893c17.718,0.172,35.451-0.016,53.168,0.439
		c19.269,0.392,38.553-0.313,57.79,0.423c4.794,1.833,8.146,6.438,12,9.791c2.099,1.535,2.256,4.151,1.88,6.548
		c-5.06,45.069-9.995,90.17-15.07,135.24c-3.258,29.373-6.156,58.777-10.887,87.961c-5.185,35.435-10.496,70.855-15.665,106.29
		c-5.06,33.649-9.775,67.361-15.039,100.995c-0.345-0.611-1.034-1.833-1.379-2.444c-0.517,2.083-1.018,4.198-1.488,6.329
		c-17.232,0.799-34.605-0.94-51.712,1.692c-45.665-0.094-91.314-1.206-136.963-1.88c-11.216-4.01-23.263-1.692-34.887-2.256
		c-17.906,0.376-35.905-1.159-53.717,1.034c-10.637-0.047-21.289,0.313-31.911-0.423c-9.681-3.838-20.208-1.739-30.313-2.177
		c-18.94,0.266-37.957-1.018-56.819,1.002c-45.665-0.157-91.345-1.206-136.979-1.895c-11.263-3.948-23.295-1.708-34.918-2.272
		c-17.373,0.376-34.84-1.05-52.135,1.065c-10.637-0.047-21.305,0.313-31.911-0.407c-10.198-3.963-21.274-1.676-31.895-2.177
		c-16.323,0.345-32.725-0.971-48.97,0.956c-4.433,0.141-8.867,0.204-13.269-0.063c0.548-8.052,0.439-16.151-1.065-24.109
		c3.822-10.825,2.647-22.417,3.493-33.65c0.235-24.673,2.522-49.283,2.193-73.972c0.83-14.506,2.037-28.997,2.256-43.534
		c1.097-35.012,3.07-69.978,3.65-105.006c0.517-51.226,4.042-102.358,5.436-153.553C306.47,811.29,313.566,806.982,318.61,802.815z"
		/>
	<path fill="#F2F2F2" stroke="#F2F2F2" stroke-width="0.5" d="M332.318,801.452c18.987,1.347,38.036,1.097,57.054,1.614
		c2.052,0.016,4.136,0.016,6.235,0.031c2.491-0.031,5.013-0.094,7.535-0.157c4.23,0.11,8.459,0.392,12.72,0.454
		c108.029,2.35,216.105,3.415,324.165,4.355c13.598,2.318,27.43,0.846,41.137,1.206c17.279-0.705,34.433,2.413,51.727,1.614
		c20.882,0.705,41.795,0.016,62.662,1.379c61.643,0.627,123.271,2.146,184.915,2.82c-2.256,4.386-4.59,8.726-6.94,13.049
		c-39.978-1.112-79.988-0.893-119.966-2.146c-34.48-0.642-68.975-0.627-103.439-1.77c-43.879-0.125-87.742-1.786-131.605-2.005
		c-36.563-0.564-73.126-1.582-109.689-1.849c-39.117-1.3-78.265-0.94-117.381-2.193c-28.746-0.705-57.523-0.392-86.254-1.457
		c-29.733-0.752-59.482-0.595-89.199-1.363C321.649,810.773,327.367,806.544,332.318,801.452z"/>
	<path fill="#276B7A" stroke="#276B7A" stroke-width="0.5" d="M403.141,802.941c19.77-3.133,39.884-0.721,59.811-1.222l0.031,1.441
		c-15.712-0.188-31.441-0.83-47.122,0.235C411.6,803.332,407.371,803.05,403.141,802.941z"/>
	<path fill="#A6AAAD" stroke="#A6AAAD" stroke-width="0.5" d="M271.63,1121.341c4.433-0.11,8.882-0.188,13.331-0.235
		c3.634-0.031,7.284-0.094,10.934-0.157c0.329,24.689-1.958,49.299-2.193,73.972c-0.846,11.232,0.329,22.825-3.493,33.65
		c-3.462-15.431-5.483-31.127-8.444-46.652c-0.642-3.509-1.285-7.002-1.911-10.48
		C277.442,1154.677,273.651,1138.134,271.63,1121.341z"/>
	<path fill="#1B1F28" stroke="#1B1F28" stroke-width="0.5" d="M141.356,1150.15c4.59-2.506,9.822-1.097,14.679-0.439
		c22.574,3.54,45.195,6.674,67.8,10.12c18.955,2.35,37.331,7.77,56.02,11.608c0.627,3.478,1.269,6.971,1.911,10.48
		c-6.344,0.329-12.689,0.627-19.034,0.909c0.862,7.629,1.864,15.258,3.039,22.856c-20.396,5.937-41.09,10.872-61.377,17.232
		c8.882,1.739,17.937,0.893,26.929,1.159c11.577,0.266,23.138-0.204,34.73-0.172c-11.749,5.781-25.049,7.112-36.782,12.908
		c13.331,0.345,26.553-1.833,39.869-2.271c7.002-0.298,13.739,1.958,20.302,4.136c0.063,4.606,0.172,9.243,0.47,13.88l1.363,0.125
		c4.402,0.266,8.835,0.204,13.269,0.063c4.574,0.016,9.149,0.188,13.723,0.58c3.211,1.222,6.517,2.475,10.042,2.334
		c10.449,0.047,20.945-0.658,31.362,0.454c8.585,0.924,16.12,5.452,23.858,8.898c28.261,13.065,56.537,26.083,84.844,39.023
		c12.846,6.532,26.584,11.264,38.882,18.861c-11.859-2.616-23.201-7.081-34.856-10.37c-14.146-3.932-27.884-10.167-42.798-10.417
		c-15.587-0.47-31.159-1.692-46.746-1.864c14.193,4.402,28.965,6.423,43.409,9.775c17.044,3.039,33.242,9.305,49.738,14.443
		c14.726,4.606,29.42,9.337,44.114,14.052c5.89,1.801,11.859,5.154,18.188,3.431c5.389-1.723,10.135,1.99,14.725,4.245
		c28.793,15.571,57.978,30.391,86.834,45.837c2.647-3.854,5.984-7.41,10.825-8.193c13.629-3.415,25.629-10.95,38.521-16.229
		c10.308-4.214,21.681-1.786,32.49-1.864c18.846,1.316,37.738,1.425,56.615,2.162c-12.83-5.796-26.819-8.177-39.822-13.504
		c5.953-3.118,11.906-6.376,18.344-8.397c6.407-2.099,13.159-0.251,19.582,0.83c7.895,1.598,15.916,2.585,23.765,4.48
		c11.624,2.851,21.336,10.276,32.302,14.741c3.321,1.692,6.987,0.329,10.402-0.313c-9.932-10.386-22.543-17.592-33.508-26.757
		c-8.491-8.021-21.086-2.381-30.673-7.848c12.344-9.854,26.976-16.276,40.056-25.08c12.642-7.018,24.297-17.122,39.148-18.939
		c26.992-4.559,53.748-10.559,80.834-14.491c22.214-0.11,44.333,3.023,66.531,3.979c11.138,0.266,22.308,2.647,33.43,1.582
		c6.031-3.619,9.446-10.245,14.021-15.43c10.48-12.564,19.989-25.911,30.61-38.349c11.279-11.749,23.122-22.965,34.621-34.511
		c-4.355-0.157-8.71-0.454-13.034-0.799c14.835-7.159,31.44-9.76,46.338-16.856c-9.149-1.379-18.391-2.021-27.524-3.368
		c4.7-3.164,9.76-5.749,14.772-8.365c5.326-2.773,9.65-7.018,14.428-10.59c9.932-0.533,21.164-4.026,30.219,1.739
		c16.464,9.055,32.709,18.485,49.268,27.368c2.882,1.629,6.125,3.305,7.566,6.532c3.713,7.441,6.752,15.211,10.386,22.715
		c2.945,6.893,6.908,13.41,8.929,20.694c-12.36,33.508-26.005,66.547-38.584,99.977c-2.553,6.736-4.59,14.631-11.389,18.391
		c-29.858,18.234-60.077,35.921-89.841,54.312c-5.796,3.384-11.592,8.146-18.704,7.566c-13.566-0.971-27.148-1.676-40.699-2.804
		c-5.953-0.564-12.047,0.125-17.451,2.788c-23.953,11.091-47.858,22.292-71.826,33.352c-9.995,4.982-20.255,9.399-30.845,12.893
		c-25.159,8.788-50.255,17.733-75.398,26.506c-3.399,1.723-6.156-1.144-8.694-2.976c-3.337-2.663-6.94-5.013-11.029-6.282
		c-21.227-6.799-42.328-14.021-63.523-20.96c-16.261-4.935-31.535-12.72-46.041-21.477c19.551-1.88,39.289-1.488,58.777-4.104
		c-14.96-3.055-30.093-5.185-45.116-7.895c-14.992-2.773-30.657-3.478-44.615-10.167c-7.269-3.462-15.055-5.765-23.107-6.235
		c1.488,1.896,2.992,3.807,4.512,5.718c-7.425-3.321-14.475-7.457-21.994-10.527c-5.17-1.864-11.749-2.914-16.261,0.971
		c-7.222,5.843-13.441,13.237-22.198,16.903c-25.409,10.715-50.913,21.227-76.353,31.879c-7.034,2.945-13.801,6.533-20.177,10.731
		c23.451-3.635,46.683-8.491,70.04-12.689c7.081-1.363,14.334-1.927,21.305-3.932c4.136-1.097,6.392-5.076,8.632-8.365
		c7.128-11.781,14.459-23.435,22.37-34.714c24.454,11.545,48.391,24.172,72.688,36.062c24.25,12.266,48.798,23.937,72.641,37.033
		c4.198,2.35,8.945,4.574,11.357,9.023c2.726,4.841,4.653,10.089,6.799,15.211c2.005,5.185,4.512,10.778,2.992,16.449
		c-7.833,27.18-16.872,54.046-23.968,81.445c-2.397,5.969-6.971,10.731-10.01,16.386c-11.875-1.41-23.827-0.815-35.733-0.36
		c-5.091-0.172-10.073-1.504-14.96-2.757l0.564-1.003l0.674-1.081c-47.028-13.692-93.491-29.216-140.409-43.268
		c-17.373-4.731-30.955-17.138-46.401-25.754c-13.441-7.41-25.112-18.987-40.699-21.697c-26.052-4.888-51.837-11.107-77.826-16.308
		c-10.668-1.849-19.159-8.882-28.198-14.255c-20.553-12.877-41.247-25.488-61.737-38.459c-7.566-4.731-16.339-8.428-21.446-16.135
		c-7.222-10.605-14.021-21.493-21.242-32.083c-2.976-4.668-8.867-5.357-13.77-6.611c-16.668-3.525-33.289-7.316-49.91-10.981
		c-14.443-3.149-28.824-7.081-43.644-7.786c-29.858-1.519-59.685-3.728-89.559-4.731c-2.35-0.407-4.151-2.193-6.094-3.399
		c-7.488-5.64-15.399-10.684-23.06-16.073c-4.59-3.008-6.517-8.334-8.882-12.987c-4.151-8.804-8.741-17.389-13.049-26.099
		c-3.384-6.783-2.82-14.537-3.243-21.869c-0.298-15.101-2.82-30.25-1.707-45.304c5.969-15.446,14.146-29.984,20.725-45.195
		c2.757-5.326,4.23-12.47,10.543-14.741C96.803,1170.389,119.111,1160.332,141.356,1150.15z"/>
	<path fill="#010206" stroke="#010206" stroke-width="0.5" d="M1117.846,1151.34c11.686-0.407,23.357-1.943,35.091-1.426
		c-4.778,3.572-9.102,7.817-14.428,10.59c-5.013,2.616-10.073,5.201-14.772,8.365c9.133,1.347,18.375,1.99,27.524,3.368
		c-14.898,7.096-31.503,9.697-46.338,16.856c4.324,0.345,8.678,0.642,13.034,0.799c-11.498,11.545-23.342,22.762-34.621,34.511
		c-10.621,12.438-20.13,25.785-30.61,38.349c-4.574,5.185-7.989,11.812-14.021,15.43c-11.122,1.065-22.292-1.316-33.43-1.582
		c-22.198-0.956-44.318-4.089-66.531-3.979c-27.085,3.932-53.842,9.932-80.834,14.491c-14.851,1.817-26.506,11.921-39.148,18.939
		c-13.081,8.804-27.712,15.227-40.056,25.08c9.587,5.467,22.182-0.172,30.673,7.848c10.966,9.164,23.577,16.37,33.508,26.757
		c-3.415,0.642-7.081,2.005-10.402,0.313c-10.966-4.465-20.678-11.89-32.302-14.741c-7.848-1.896-15.869-2.882-23.765-4.48
		c-6.423-1.081-13.174-2.929-19.582-0.83c-6.438,2.021-12.391,5.279-18.344,8.397c13.002,5.326,26.992,7.707,39.822,13.504
		c-18.877-0.736-37.769-0.846-56.615-2.162c-10.809,0.078-22.182-2.35-32.49,1.864c-12.893,5.279-24.892,12.814-38.521,16.229
		c-4.841,0.783-8.177,4.339-10.825,8.193c-28.856-15.446-58.04-30.266-86.834-45.837c-4.59-2.256-9.337-5.969-14.725-4.245
		c-6.329,1.723-12.297-1.629-18.188-3.431c-14.694-4.715-29.388-9.446-44.114-14.052c-16.496-5.138-32.694-11.404-49.738-14.443
		c-14.444-3.352-29.216-5.373-43.409-9.775c15.587,0.172,31.159,1.394,46.746,1.864c14.914,0.251,28.652,6.485,42.798,10.417
		c11.655,3.29,22.997,7.754,34.856,10.37c-12.297-7.598-26.036-12.329-38.882-18.861c-28.307-12.94-56.584-25.958-84.844-39.023
		c-7.739-3.446-15.274-7.974-23.858-8.898c-10.417-1.112-20.913-0.407-31.362-0.454c-3.525,0.141-6.83-1.112-10.042-2.334
		c22.386,0.094,44.756,0.345,67.142,0.642c10.606,0.721,21.274,0.36,31.911,0.407c29.012,0.486,58.025,0.877,87.053,1.206
		c45.633,0.689,91.314,1.739,136.979,1.895c29.044,0.439,58.088,0.862,87.131,1.175c10.621,0.736,21.274,0.376,31.911,0.423
		c29.529,0.501,59.074,0.909,88.604,1.222c45.649,0.674,91.298,1.786,136.963,1.88c17.921,0.313,35.858,0.674,53.78,0.736
		c0.25-2.13,0.517-4.23,0.799-6.313c5.264-33.634,9.979-67.346,15.039-100.995
		C1076.223,1152.907,1097.089,1152.922,1117.846,1151.34z"/>
	<path fill="#010206" stroke="#010206" stroke-width="0.5" d="M262.732,1182.828c6.345-0.282,12.689-0.58,19.034-0.909
		c2.961,15.524,4.982,31.221,8.444,46.652c1.504,7.958,1.613,16.057,1.065,24.109l-1.363-0.125c-0.298-4.637-0.407-9.274-0.47-13.88
		c-6.564-2.177-13.3-4.433-20.302-4.136c-13.316,0.439-26.537,2.616-39.869,2.271c11.733-5.796,25.033-7.128,36.782-12.908
		c-11.592-0.031-23.153,0.439-34.73,0.172c-8.992-0.266-18.047,0.58-26.929-1.159c20.287-6.36,40.981-11.295,61.377-17.232
		C264.596,1198.086,263.593,1190.457,262.732,1182.828z"/>
	<path fill="#010206" stroke="#010206" stroke-width="0.5" d="M1259.305,1228.962c4.01,6.752,6.815,14.115,10.261,21.164
		c1.692,3.869,4.183,8.099,2.381,12.438c-9.728,32.725-19.049,65.576-28.605,98.363c-0.752,3.478-3.556,5.796-6.313,7.739
		c-23.169,16.449-45.947,33.462-69.053,49.988c-11.64,5.781-24.407,8.961-36.438,13.833c-31.66,11.624-63.476,22.825-95.027,34.746
		c-11.185,2.726-22.762,0.36-34.041,2.256c-32.396,4.026-65.074,4.997-97.455,8.992c-11.217,1.3-20.992,8.303-32.396,8.506
		c-11.404,0.658-23.921-1.864-33.978,5.029c-11.53,5.828-16.574,18.517-19.88,30.234c-2.052,8.538-3.666,17.169-5.843,25.691
		c-1.128,3.744-0.251,7.598,0.752,11.295c-2.992,8.71-7.441,16.793-12.846,24.234c-2.177,3.352-4.512,6.611-7.222,9.572
		c7.096-27.399,16.135-54.265,23.968-81.445c1.52-5.671-0.987-11.263-2.992-16.449c-2.146-5.122-4.073-10.371-6.799-15.211
		c-2.413-4.449-7.159-6.673-11.357-9.023c-23.843-13.096-48.391-24.767-72.641-37.033c-24.297-11.89-48.234-24.516-72.688-36.062
		c-7.911,11.279-15.242,22.934-22.37,34.714c-2.24,3.29-4.496,7.269-8.632,8.365c-6.971,2.005-14.224,2.569-21.305,3.932
		c-23.357,4.198-46.589,9.055-70.04,12.689c6.376-4.198,13.143-7.786,20.177-10.731c25.441-10.652,50.944-21.164,76.353-31.879
		c8.757-3.666,14.976-11.06,22.198-16.903c4.512-3.885,11.091-2.836,16.261-0.971c7.519,3.07,14.569,7.206,21.994,10.527
		c-1.52-1.911-3.023-3.822-4.512-5.718c8.052,0.47,15.838,2.773,23.107,6.235c13.958,6.689,29.623,7.394,44.615,10.167
		c15.023,2.71,30.156,4.841,45.116,7.895c-19.488,2.616-39.226,2.225-58.777,4.104c14.506,8.757,29.78,16.543,46.041,21.477
		c21.195,6.94,42.297,14.162,63.523,20.96c4.089,1.269,7.692,3.619,11.029,6.282c2.538,1.833,5.295,4.7,8.694,2.976
		c25.143-8.773,50.239-17.718,75.398-26.506c10.59-3.493,20.851-7.911,30.845-12.893c23.968-11.06,47.873-22.261,71.826-33.352
		c5.405-2.663,11.498-3.352,17.451-2.788c13.551,1.128,27.133,1.833,40.699,2.804c7.112,0.58,12.908-4.182,18.704-7.566
		c29.764-18.391,59.983-36.078,89.841-54.312c6.799-3.76,8.835-11.655,11.389-18.391
		C1233.3,1295.509,1246.944,1262.471,1259.305,1228.962z"/>
	<path fill="#F2F2F2" stroke="#F2F2F2" stroke-width="0.5" d="M304.543,1252.743c16.245-1.927,32.647-0.611,48.97-0.956
		c10.621,0.501,21.697-1.786,31.895,2.177c-22.386-0.298-44.756-0.548-67.142-0.642
		C313.691,1252.931,309.117,1252.758,304.543,1252.743z"/>
	<path fill="#F2F2F2" stroke="#F2F2F2" stroke-width="0.5" d="M417.318,1254.372c17.295-2.115,34.762-0.689,52.135-1.065
		c11.624,0.564,23.655-1.676,34.918,2.272C475.343,1255.249,446.331,1254.857,417.318,1254.372z"/>
	<path fill="#E4E8EB" stroke="#E4E8EB" stroke-width="0.5" d="M1039.158,1254.152c0.345,0.611,1.034,1.833,1.379,2.444
		c-0.282,2.083-0.548,4.183-0.799,6.313c-17.921-0.063-35.858-0.423-53.78-0.736c17.107-2.632,34.48-0.893,51.712-1.692
		C1038.14,1258.351,1038.641,1256.236,1039.158,1254.152z"/>
	<path fill="#F2F2F2" stroke="#F2F2F2" stroke-width="0.5" d="M641.35,1257.473c18.861-2.021,37.879-0.736,56.819-1.002
		c10.104,0.438,20.631-1.661,30.313,2.177C699.437,1258.335,670.394,1257.912,641.35,1257.473z"/>
	<path fill="#F2F2F2" stroke="#F2F2F2" stroke-width="0.5" d="M760.392,1259.071c17.812-2.193,35.811-0.658,53.717-1.034
		c11.624,0.564,23.67-1.755,34.887,2.256C819.466,1259.98,789.921,1259.573,760.392,1259.071z"/>
	<path fill="#010206" stroke="#010206" stroke-width="0.5" d="M99.294,1366.16c29.874,1.003,59.701,3.212,89.559,4.731
		c14.819,0.705,29.2,4.637,43.644,7.786c16.621,3.666,33.242,7.457,49.91,10.981c4.903,1.253,10.794,1.943,13.77,6.611
		c7.222,10.59,14.02,21.478,21.242,32.083c5.107,7.707,13.88,11.404,21.446,16.135c20.49,12.971,41.184,25.582,61.737,38.459
		c9.039,5.373,17.53,12.407,28.198,14.255c25.989,5.201,51.774,11.42,77.826,16.308c15.587,2.71,27.258,14.287,40.699,21.697
		c15.446,8.616,29.028,21.023,46.401,25.754c46.918,14.052,93.382,29.576,140.409,43.268l-0.674,1.081
		c-12.658-1.786-24.751-6.329-37.206-9.102c-35.31-9.023-70.526-18.407-105.851-27.383c-15.947-4.762-31.346-11.169-47.059-16.652
		c-60.218-21.885-120.452-43.785-180.67-65.685c-11.389-3.979-23.107-6.893-34.448-10.95c-14.475-7.191-30.501-9.963-45.539-15.603
		c-6.799-2.522-13.911-4.057-21.086-4.872c-15.665-2.835-30.093-9.948-45.054-15.117c-11.263-4.778-23.78-7.222-33.602-14.898
		c-25.535-17.859-51.132-35.608-76.776-53.294C103.774,1370.014,101.503,1368.087,99.294,1366.16z"/>
	<path fill="#080808" stroke="#080808" stroke-width="0.5" d="M1116.53,1451.788c6.517-2.005,12.971,1.065,19.237,2.632
		c9.854,3.086,20.443,4.386,29.514,9.65c14.303,8.177,28.715,16.135,43.049,24.25c6.846,4.026,13.848,8.036,19.582,13.629
		c-14.835-6.125-28.558-14.6-43.017-21.493c-4.042-1.974-8.632-2.021-12.987-1.551c-42.297,4.794-84.719,8.381-126.984,13.347
		c0.188,0.783,0.595,2.365,0.783,3.164c-4.747-0.345-9.509-0.266-14.24-0.188c-3.415,0.031-6.814,0.11-10.183,0.298
		c-24.156-0.204-48.312-0.141-72.468-0.157c-32.568-0.517-65.184,0.642-97.549,4.23c-5.655,0.376-11.279,0.956-16.919,1.159
		c-2.773,8.256-4.23,16.934-7.566,25.018c-5.169,10.825-8.334,22.448-13.112,33.461c-1.003-3.697-1.88-7.551-0.752-11.295
		c2.178-8.522,3.791-17.154,5.843-25.691c3.305-11.718,8.35-24.407,19.88-30.234c10.057-6.893,22.574-4.37,33.978-5.029
		c11.404-0.204,21.18-7.206,32.396-8.506c32.38-3.995,65.058-4.966,97.455-8.992c11.279-1.896,22.856,0.47,34.041-2.256
		c13.096,2.224,25.66-2.663,38.255-5.405C1088.708,1458.571,1102.634,1455.265,1116.53,1451.788z"/>
	<path fill="#080808" stroke="#080808" stroke-width="0.5" d="M261.604,1455.062c7.175,0.815,14.287,2.35,21.086,4.872
		c15.039,5.64,31.065,8.412,45.539,15.603c-1.018-0.141-3.055-0.407-4.073-0.548c-2.24,6.219-4.543,12.407-6.767,18.626
		c-1.535,3.995-2.961,8.287-6.329,11.17c-6.815,6.297-14.099,12.094-20.992,18.297c-1.598,1.535-3.76,3.023-3.478,5.561
		c-0.345,7.817-0.11,15.65-0.125,23.483c-0.392,6.658,4.057,12.062,6.94,17.686c3.572,5.859,6,12.485,10.371,17.827
		c4.872,3.337,10.543,6.987,16.731,6.047c4.668-0.407,9.321-1.112,14.005-1.363c1.034-0.016,3.07-0.047,4.089-0.047
		c-11.295,8.898-24.563,14.867-36.688,22.543c-6.877,3.478-12.861,9.149-20.475,10.872c-19.3,0.689-38.647-0.407-57.931,0.486
		c8.444-16.652,10.527-35.968,20.788-51.743c6.407-10.261,12.109-20.992,19.66-30.485c5.765-7.739,12.329-14.835,18.47-22.276
		c5.969-7.237,6.282-17.06,6.877-25.973c-17.201,2.036-34.151,5.781-51.289,8.162c-13.645,1.472-24.015,11.31-35.216,18.234
		c2.397-7.269,5.796-14.146,8.914-21.117c3.509-8.459,11.686-13.347,18.015-19.488c8.256-6.877,15.352-15.258,24.83-20.537
		C257.249,1459.432,259.63,1457.443,261.604,1455.062z"/>
	<path fill="#BD755D" stroke="#BD755D" stroke-width="0.5" d="M324.156,1474.988c1.018,0.141,3.055,0.407,4.073,0.548
		c11.342,4.057,23.06,6.971,34.448,10.95c60.218,21.9,120.452,43.8,180.67,65.685c-5.42,1.332-10.888,3.791-16.527,3.462
		c-12.72-6.94-26.835-10.59-40.166-16.073c-26.976-9.916-54.845-17.138-82.212-25.832c-15.289-4.402-30.375-9.525-45.665-13.88
		c-13.613-3.149-27.571-4.402-41.388-6.235C319.613,1487.395,321.916,1481.207,324.156,1474.988z"/>
	<path fill="#1A1A1A" stroke="#1A1A1A" stroke-width="0.5" d="M1171.907,1478.904c4.355-0.47,8.945-0.423,12.987,1.551
		c14.459,6.893,28.182,15.368,43.017,21.493c6.783,3.149,12.626,8.005,18.736,12.282c3.149,2.037,3.713,5.953,4.778,9.274
		c3.211,12.297,7.002,24.454,10.323,36.735c2.083,5.076-2.757,8.804-5.499,12.407c-11.185-7.692-21.54-16.464-31.973-25.096
		c-11.702-10.684-27.477-14.6-41.529-21.117c-14.631-5.405-28.354-13.989-44.145-15.493c-18.094-2.099-36.125-4.48-54.187-6.674
		c-9.838-1.144-19.644-2.867-29.561-2.82c-2.976-2.146-6-4.214-9.149-6.031c-0.188-0.799-0.595-2.381-0.783-3.164
		C1087.188,1487.286,1129.61,1483.698,1171.907,1478.904z"/>
	<path fill="#F29F81" stroke="#F29F81" stroke-width="0.5" d="M317.388,1493.614c13.817,1.833,27.775,3.086,41.388,6.235
		c15.289,4.355,30.375,9.478,45.665,13.88c27.367,8.694,55.236,15.916,82.212,25.832c13.331,5.483,27.446,9.133,40.166,16.073
		c-18.908,6.031-38.803,8.491-57.555,15.039c-15.65,5.295-31.315,10.464-46.965,15.713c-9.039,3.086-18.736,2.428-28.119,3.321
		c-14.569,1.206-29.2,1.645-43.754,2.976c-5.326,0.548-10.606-0.94-15.916-0.36c-4.684,0.251-9.337,0.956-14.005,1.363
		c-6.188,0.94-11.859-2.71-16.731-6.047c-4.371-5.342-6.799-11.968-10.371-17.827c-2.882-5.624-7.331-11.028-6.94-17.686
		c0.016-7.833-0.219-15.665,0.125-23.483c-0.282-2.538,1.88-4.026,3.478-5.561c6.893-6.203,14.177-12,20.992-18.297
		C314.428,1501.901,315.853,1497.609,317.388,1493.614z"/>
	<path fill="#1A1A1A" stroke="#1A1A1A" stroke-width="0.5" d="M238.012,1503.86c17.138-2.381,34.088-6.125,51.289-8.162
		c-0.595,8.914-0.909,18.736-6.877,25.973c-6.141,7.441-12.705,14.538-18.47,22.276c-7.551,9.493-13.253,20.224-19.66,30.485
		c-10.261,15.775-12.344,35.09-20.788,51.743c-5.42-2.303-8.506-7.472-12.282-11.655c-4.057-4.825-8.569-9.243-12.391-14.224
		c-2.224-2.491-1.692-6.031-1.88-9.039c0.125-17.279,0.11-34.542-0.016-51.806c-0.266-6.266,1.833-12.564,5.859-17.357
		C213.997,1515.17,224.367,1505.332,238.012,1503.86z"/>
	<path fill="#C28168" stroke="#C28168" stroke-width="0.5" d="M851.267,1499.599c32.365-3.588,64.98-4.747,97.549-4.23
		c24.156,0.016,48.312-0.047,72.468,0.157c-10.48,1.927-21.164,0.83-31.707,1.833c-15.65,1.567-31.378,1.191-47.043,1.661
		C912.096,1499.003,881.673,1501.385,851.267,1499.599z"/>
	<path fill="#F29F81" stroke="#F29F81" stroke-width="0.5" d="M1021.284,1495.526c3.368-0.188,6.767-0.266,10.183-0.298
		c6.767,9.149,17.624,14.443,23.435,24.36c7.378,13.081,13.629,26.788,21.446,39.618c5.405,7.942,12.705,14.334,18.595,21.916
		c-2.397-0.658-4.762-1.285-7.112-1.943c-0.219,0.58-0.642,1.755-0.862,2.334c-11.78-5.953-23.388-16.057-37.519-13.441
		c-21.352,3.212-42.673,6.564-64.04,9.603c-10.104,1.128-15.806,10.84-24.971,14.115c-17.06,6.564-34.433,12.344-51.242,19.503
		c-8.146,1.238-16.402-0.861-24.563-1.191c-18.282-1.598-36.579-2.773-54.829-4.558c-4.183-0.157-7.237-3.243-10.261-5.718
		c-6.188-5.53-13.018-10.323-18.72-16.355c5.405-7.441,9.853-15.524,12.846-24.234c4.778-11.013,7.943-22.636,13.112-33.461
		c3.337-8.083,4.794-16.762,7.566-25.018c5.64-0.204,11.264-0.783,16.919-1.159c30.407,1.786,60.829-0.595,91.267-0.58
		c15.665-0.47,31.394-0.094,47.043-1.661C1000.12,1496.356,1010.804,1497.452,1021.284,1495.526z"/>
	<path fill="#BD755D" stroke="#BD755D" stroke-width="0.5" d="M1031.466,1495.228c4.731-0.078,9.493-0.157,14.24,0.188
		c3.149,1.817,6.172,3.885,9.149,6.031c7.645,5.718,15.352,11.342,23.154,16.856c4.01,2.757,7.441,6.297,9.995,10.48
		c6.83,10.887,13.77,21.728,20.835,32.49c9.258,13.316,13.394,29.232,19.832,43.942c-8.146,2.381-16.214,5.06-24.516,6.815
		c-8.491,1.582-17.122,2.146-25.66,3.368c2.381,0.783,4.778,1.567,7.237,2.272c-6.235,2.882-12.705-0.799-18.814-2.146
		c-10.371-2.46-20.491-7.112-31.347-6.486c-25.253,1.05-50.521,0.861-75.758,1.911c-16.872,0.078-33.79,1.786-50.615,0.345
		c16.809-7.159,34.182-12.94,51.242-19.503c9.164-3.274,14.867-12.987,24.971-14.115c21.368-3.039,42.688-6.391,64.04-9.603
		c14.13-2.616,25.738,7.488,37.519,13.441c0.219-0.58,0.642-1.755,0.862-2.334c2.35,0.658,4.715,1.285,7.112,1.943
		c-5.89-7.582-13.19-13.974-18.595-21.916c-7.817-12.83-14.068-26.537-21.446-39.618
		C1049.09,1509.671,1038.234,1504.376,1031.466,1495.228z"/>
	<path fill="#080808" stroke="#080808" stroke-width="0.5" d="M1054.855,1501.447c9.916-0.047,19.723,1.676,29.561,2.82
		c18.062,2.193,36.093,4.574,54.187,6.674c15.791,1.504,29.514,10.088,44.145,15.493c14.052,6.517,29.827,10.433,41.529,21.117
		c10.433,8.632,20.788,17.404,31.973,25.096c-8.491,10.856-15.869,22.731-25.315,32.756c-17.295,9.587-35.451,17.655-52.949,26.898
		c-3.65,1.708-7.457,4.449-11.671,3.149c-26.835-6.016-53.685-12.047-80.583-17.78c-2.46-0.705-4.856-1.488-7.237-2.272
		c8.538-1.222,17.169-1.786,25.66-3.368c8.303-1.755,16.37-4.433,24.516-6.815c-6.438-14.71-10.574-30.626-19.832-43.942
		c-7.065-10.762-14.005-21.603-20.835-32.49c-2.553-4.183-5.984-7.723-9.995-10.48
		C1070.207,1512.789,1062.5,1507.165,1054.855,1501.447z"/>
	<path fill="#030304" stroke="#030304" stroke-width="0.5" d="M747.859,1609.069c11.906-0.454,23.858-1.05,35.733,0.36
		c-3.916,4.59-10.543,6.877-16.402,5.264C760.642,1613.189,754.125,1611.465,747.859,1609.069z"/>
</g>
</svg>
