<?xml version="1.0" encoding="UTF-8" standalone="no"?>
<!-- Created with Inkscape (http://www.inkscape.org/) -->

<svg
   xmlns:dc="http://purl.org/dc/elements/1.1/"
   xmlns:cc="http://creativecommons.org/ns#"
   xmlns:rdf="http://www.w3.org/1999/02/22-rdf-syntax-ns#"
   xmlns:svg="http://www.w3.org/2000/svg"
   xmlns="http://www.w3.org/2000/svg"
   xmlns:xlink="http://www.w3.org/1999/xlink"
   xmlns:sodipodi="http://sodipodi.sourceforge.net/DTD/sodipodi-0.dtd"
   xmlns:inkscape="http://www.inkscape.org/namespaces/inkscape"
   width="210mm"
   height="297mm"
   viewBox="0 0 210 297"
   version="1.1"
   id="svg1796"
   inkscape:version="0.92.5 (2060ec1f9f, 2020-04-08)"
   sodipodi:docname="man-using-mobile-device.svg">
  <defs
     id="defs1790">
    <linearGradient
       inkscape:collect="always"
       xlink:href="#linearGradient3849"
       id="linearGradient3266"
       gradientUnits="userSpaceOnUse"
       gradientTransform="matrix(1.21,0,0,1.21,-93.423508,-130.68026)"
       x1="503.30356"
       y1="672.45148"
       x2="499.01785"
       y2="673.9693" />
    <linearGradient
       inkscape:collect="always"
       id="linearGradient3849">
      <stop
         style="stop-color:#1a1a1a;stop-opacity:1;"
         offset="0"
         id="stop3851" />
      <stop
         style="stop-color:#333333;stop-opacity:1"
         offset="1"
         id="stop3853" />
    </linearGradient>
    <linearGradient
       inkscape:collect="always"
       xlink:href="#linearGradient3859"
       id="linearGradient3268"
       gradientUnits="userSpaceOnUse"
       gradientTransform="matrix(1.21,0,0,1.21,-93.423508,-130.68026)"
       x1="500.98212"
       y1="660.84436"
       x2="495.89285"
       y2="672.98718" />
    <linearGradient
       inkscape:collect="always"
       id="linearGradient3859">
      <stop
         style="stop-color:#1a1a1a;stop-opacity:1;"
         offset="0"
         id="stop3861" />
      <stop
         style="stop-color:#1a1a1a;stop-opacity:0;"
         offset="1"
         id="stop3863" />
    </linearGradient>
    <linearGradient
       inkscape:collect="always"
       xlink:href="#linearGradient3810"
       id="linearGradient3264"
       gradientUnits="userSpaceOnUse"
       gradientTransform="matrix(2.985984,0,0,2.985984,-723.27953,-604.39964)"
       x1="395.34845"
       y1="271.76682"
       x2="402.04071"
       y2="262.29663" />
    <linearGradient
       inkscape:collect="always"
       id="linearGradient3810">
      <stop
         style="stop-color:#808080;stop-opacity:1;"
         offset="0"
         id="stop3812" />
      <stop
         style="stop-color:#808080;stop-opacity:0;"
         offset="1"
         id="stop3814" />
    </linearGradient>
    <radialGradient
       inkscape:collect="always"
       xlink:href="#linearGradient4333"
       id="radialGradient3262"
       gradientUnits="userSpaceOnUse"
       gradientTransform="matrix(1.3449047,-0.69237907,0.74575606,1.4485862,-315.11555,162.59528)"
       cx="459.3331"
       cy="365.77625"
       fx="459.3331"
       fy="365.77625"
       r="8.5042276" />
    <linearGradient
       inkscape:collect="always"
       id="linearGradient4333">
      <stop
         style="stop-color:#de8787;stop-opacity:1;"
         offset="0"
         id="stop4335" />
      <stop
         style="stop-color:#de8787;stop-opacity:0;"
         offset="1"
         id="stop4337" />
    </linearGradient>
    <linearGradient
       inkscape:collect="always"
       xlink:href="#linearGradient4357"
       id="linearGradient3260"
       gradientUnits="userSpaceOnUse"
       x1="444.15594"
       y1="364.18524"
       x2="444.4671"
       y2="343.48764"
       gradientTransform="translate(112.01608,6.9423571)" />
    <linearGradient
       inkscape:collect="always"
       id="linearGradient4357">
      <stop
         style="stop-color:#666666;stop-opacity:1;"
         offset="0"
         id="stop4359" />
      <stop
         style="stop-color:#666666;stop-opacity:0;"
         offset="1"
         id="stop4361" />
    </linearGradient>
  </defs>
  <sodipodi:namedview
     id="base"
     pagecolor="#ffffff"
     bordercolor="#666666"
     borderopacity="1.0"
     inkscape:pageopacity="0.0"
     inkscape:pageshadow="2"
     inkscape:zoom="0.98994949"
     inkscape:cx="182.73987"
     inkscape:cy="481.56318"
     inkscape:document-units="mm"
     inkscape:current-layer="layer1"
     showgrid="false"
     inkscape:window-width="2488"
     inkscape:window-height="1376"
     inkscape:window-x="72"
     inkscape:window-y="27"
     inkscape:window-maximized="1" />
  <metadata
     id="metadata1793">
    <rdf:RDF>
      <cc:Work
         rdf:about="">
        <dc:format>image/svg+xml</dc:format>
        <dc:type
           rdf:resource="http://purl.org/dc/dcmitype/StillImage" />
        <dc:title></dc:title>
      </cc:Work>
    </rdf:RDF>
  </metadata>
  <g
     inkscape:label="Layer 1"
     inkscape:groupmode="layer"
     id="layer1">
    <g
       id="g3270"
       transform="matrix(0.57946312,0,0,0.54319586,-227.50639,-127.36256)">
      <path
         sodipodi:nodetypes="ccscsccccsccccssccszscssccsc"
         inkscape:connector-curvature="0"
         id="path4453"
         d="m 494.46967,544.76053 c -9.86529,-3.84032 -10.07879,-2.93223 -19.01434,0.89286 0,0 -5.27236,5.01461 -7.2877,7.60895 -2.71433,3.49414 -6.02285,10.69109 -6.02285,10.69109 0,0 2.57102,-0.25386 3.53554,-1.01015 1.06814,-0.83754 2.0203,-3.53554 2.0203,-3.53554 l 3.03046,-2.52538 -3.53553,9.09137 -0.50508,8.5863 c 0,0 2.52915,0.38792 3.03046,-0.50508 1.74939,-3.11624 2.52538,-8.08122 2.52538,-8.08122 l 3.03046,-5.55584 -2.02031,9.09138 v 7.57614 c 0,0 3.03735,0.57614 3.53554,-0.50508 1.46535,-3.18025 0.75765,-5.12952 1.88474,-9.31213 1.35526,-5.02935 3.92363,-8.99688 3.92363,-8.99688 l -1.01015,6.81853 c 0,0 -0.89576,9.77001 0.75762,11.99556 0.75058,1.01033 2.8616,-0.8925 3.03045,-2.65165 0.16885,-1.75915 0.17032,-5.9301 0.76055,-8.39895 0.75664,-3.16487 1.63955,-5.3683 3.28006,-7.13215 0,0 1.51523,0 2.02031,3.03046 0.50507,3.03046 1.51523,5.80838 5.05076,7.32361 3.53553,1.51523 6.81853,-0.50507 6.81853,-0.50507 l 0.50507,-3.03046 c 0,0 -5.30329,-2.77792 -5.80837,-6.31346 -0.50508,-3.53553 -3.53553,-14.64721 -3.53553,-14.64721 z"
         style="fill:#de8787;fill-opacity:1;stroke:none" />
      <g
         transform="matrix(0.92236816,0,0,0.92236816,140.62627,48.682208)"
         id="g4307">
        <path
           style="fill:#333333;fill-opacity:1;stroke:none"
           d="m 400.24417,684.85044 c 0,0 -15.40079,18.15091 -18.15092,22.00112 -2.75014,3.85019 -5.50029,7.7004 -5.50029,7.7004 0,0 6.0503,5.50026 12.65065,4.95024 6.60033,-0.55002 16.50084,-8.80045 23.6512,-13.75069 7.15036,-4.95027 8.25042,-13.75072 8.25042,-13.75072 0,0 3.8502,-2.20011 4.40023,1.10007 0.55003,3.30016 6.0503,-2.75014 6.0503,-5.50029 0,-2.75013 0.55003,-14.85076 0.55003,-14.85076 l -26.95138,7.15037 z"
           id="path3873"
           inkscape:connector-curvature="0" />
        <path
           style="fill:#333333;stroke:none"
           d="m 510.77313,683.91144 c 1.72856,6.05 3.025,9.075 3.025,9.075 l 28.52143,15.98929 c 0,0 13.06559,0.008 11.2357,-3.45715 -5.19785,-9.8425 -24.19998,-30.68213 -24.19998,-30.68213 l -10.37143,-8.21072 -22.47143,-2.59285 -0.43216,17.71785 8.47857,3.45628 z"
           id="path3807"
           inkscape:connector-curvature="0"
           sodipodi:nodetypes="cccscccccc" />
        <path
           style="fill:#4d4d4d;fill-opacity:1;stroke:none"
           d="m 523.52135,671.59538 c 7.00794,5.21475 20.31364,21.72673 28.7375,33.92321 -8.6257,4.92921 -31.01435,-9.26596 -28.95357,-16.20536 2.73742,-5.50811 2.53761,-10.0389 0.21607,-17.71785 z"
           id="path3809"
           inkscape:connector-curvature="0"
           sodipodi:nodetypes="cccc" />
        <path
           style="fill:#4d4d4d;stroke:#333333;stroke-width:1.21000004;stroke-miterlimit:4;stroke-dasharray:none;stroke-opacity:1"
           d="m 506.45171,684.77573 -8.7509,-3.78125 -1.18839,-2.70089 c -1.28943,1.49312 -0.615,2.9584 -0.21607,4.75357 l 10.15536,4.32143 5.72589,-0.97232 -0.54018,-2.59286 z"
           id="path3819"
           inkscape:connector-curvature="0"
           sodipodi:nodetypes="cccccccc" />
        <path
           style="fill:#333333;fill-opacity:1;stroke:#333333;stroke-width:1.21000004px;stroke-linecap:butt;stroke-linejoin:miter;stroke-opacity:1"
           d="m 514.55438,693.74269 1.08035,3.45715 c 0,0 22.94378,14.08061 26.25269,14.26071 3.30891,0.18009 10.97817,-0.67907 11.12768,-4.32145 -3.51207,1.44227 -7.78857,1.93028 -10.5875,1.72858 -2.79893,-0.20171 -27.87322,-15.12499 -27.87322,-15.12499 z"
           id="path3829"
           inkscape:connector-curvature="0"
           sodipodi:nodetypes="cczczc" />
        <path
           style="opacity:0.66799999;fill:url(#linearGradient3266);fill-opacity:1;stroke:none"
           d="m 511.85348,687.04448 -0.54017,-2.48482 -4.75358,0.64822 -0.10802,2.48481 z"
           id="path3847"
           inkscape:connector-curvature="0"
           sodipodi:nodetypes="ccccc" />
        <path
           style="fill:url(#linearGradient3268);fill-opacity:1;stroke:none"
           d="m 496.62046,670.51501 -0.10802,5.83393 c -0.1528,10.94999 9.09453,7.18184 23.44375,6.3741 z"
           id="path3857"
           inkscape:connector-curvature="0"
           sodipodi:nodetypes="cccc" />
        <g
           id="g3867"
           transform="matrix(1.21,0,0,1.21,-97.684014,-128.35037)">
          <path
             sodipodi:nodetypes="cscccsccssc"
             inkscape:connector-curvature="0"
             id="path3795"
             d="m 482.85292,525.06256 c -12.12184,6.06091 -35.35534,8.08122 -48.48733,2.0203 -13.13198,-6.06091 -12.12183,-5.05076 -12.12183,-5.05076 3.00555,40.25211 0.26321,65.34237 0.4849,100.0051 0,16.16244 -13.61688,61.6193 -13.61688,61.6193 59.83281,-12.3094 21.51901,-86.46414 43.94164,-118.69292 3.05826,-4.39574 27.04697,14.84662 35.86041,92.42896 5.05077,7.07107 22.22335,13.13198 22.22335,13.13198 0,0 2.96918,-8.96881 1.95903,-24.1211 -0.78361,-11.75422 -1.95902,-9.21393 -12.06055,-49.62003 -10.10152,-40.40611 -18.18274,-71.72083 -18.18274,-71.72083 z"
             style="fill:#666666;stroke:none" />
          <path
             sodipodi:nodetypes="czcczcc"
             inkscape:connector-curvature="0"
             id="path3799"
             d="m 412.5,678.79075 c 0,0 14.57116,-9.67556 17.38265,-48.64234 2.81149,-38.96679 10.32068,-68.93275 10.78776,-97.87909 l -15.09797,-7.00101 c 0,0 -0.26098,19.77004 -1.37959,46.92754 -1.11861,27.1575 4.69772,60.67808 -14.54999,110.52348 z"
             style="opacity:0.52339992;fill:#4d4d4d;stroke:none" />
          <path
             sodipodi:nodetypes="sccccs"
             inkscape:connector-curvature="0"
             id="path3803"
             d="m 453.21429,564.50504 c -4.94303,5.39798 -5.90986,15.29331 -8.21429,24.28571 0.18802,-17.52087 3.10037,-13.76852 -2.85714,-30.35714 6.76843,2.24608 14.18122,5.07355 19.64285,1.42857 -3.09365,3.26678 8.79038,12.96789 5.95409,18.92857 -3.40758,-4.80413 -12.76571,-16.20748 -14.52551,-14.28571 z"
             style="fill:#4d4d4d;stroke:none" />
          <path
             sodipodi:nodetypes="csscscc"
             inkscape:connector-curvature="0"
             id="path3801"
             d="m 511.16072,670.48718 c 0,0 3.48213,-14.91071 2.76785,-25.62499 -0.38085,-5.71276 -8.42539,-36.81523 -11.07143,-45.71429 C 498.46253,584.36809 482.5,525.21933 482.5,525.21933 c 0,0 -6.42857,3.57143 -8.57143,3.57143 -2.14285,0 0.71428,23.57142 11.78571,48.21428 16.36926,40.68267 22.73574,67.58541 25.44644,93.48214 z"
             style="fill:#808080;stroke:none" />
        </g>
      </g>
      <path
         sodipodi:nodetypes="cccccscscsccccccscccccccsscc"
         inkscape:connector-curvature="0"
         id="path3879"
         d="m 515.41081,415.22276 c -7.70699,10.64131 -8.20309,7.63625 -11.6235,32.6454 -2.14285,12.14286 -17.85714,52.16071 -17.85714,52.16071 l -10.6875,45.71875 c 7.29935,-2.87932 9.58628,-5.64779 19.28571,-0.009 0,0 13.30803,-26.53124 14.73661,-50.81696 0.92151,-15.6656 12.21578,-33.95202 15.04911,-41.46875 2.0525,13.58554 2.6775,26.87963 1.51015,35.18279 -1.16735,8.30315 -12.4016,35.85213 -12.4016,35.85213 0,0 8.22181,3.38025 17.50752,7.66597 9.28572,4.28571 20,11.4375 20,11.4375 l 2.875,-4.28125 4.09375,-11.09375 c 0.46083,0.0106 0.91432,0.0249 1.375,0.0312 1.86059,6.03155 3.40655,9.86893 5.96875,14.625 l 35.31827,-5.90112 c 0,0 -8.12931,-20.15082 -9.24535,-36.92602 -1.15012,-17.28745 -2.20026,-34.965 0.60555,-48.54781 8.48383,11.20085 10.51258,20.7855 16.90179,36.72321 17.81897,2.49059 16.4937,0.10276 49.81775,3.62954 -2.54945,-14.47015 3.09121,-17.41805 -0.17936,-26.10275 -9.11984,-0.94656 -29.27165,0.35602 -38.41071,0.63393 -6.23438,-15.39313 -8.79632,-20.49202 -11.64085,-33.60601 0,0 -5.86817,-18.70862 -17.13594,-19.49667 -4.63755,-0.91693 -9.08023,1.22857 -13.38211,0.45173 -18.32228,-3.30867 -29.7971,-6.09095 -47.18713,0.10099 -1.04171,0.37091 -9.95381,-0.84128 -15.29377,1.39117 z"
         style="fill:#1a1a1a;stroke:none" />
      <g
         transform="translate(216.7803,278.93292)"
         id="g3955">
        <path
           style="fill:#de8787;stroke:none"
           d="m 438.58493,213.39899 c -4.45188,-6.6807 3.0052,-25.84181 3.0052,-25.84181 l 11.73066,-14.92992 17.06279,9.59781 -8.53142,5.33211 -8.53137,1.06645 3.70566,26.04694 c 0,0 -16.49076,1.65584 -18.44152,-1.27158 z"
           id="path3770"
           inkscape:connector-curvature="0"
           sodipodi:nodetypes="sccccccs" />
        <path
           style="fill:#4d4d4d;stroke:none"
           d="m 440.39435,208.44388 c 0,0 16.25337,-32.87268 24.65708,-49.68009 l 29.85984,12.79705 -30.92626,47.98904 z"
           id="path3774"
           inkscape:connector-curvature="0"
           sodipodi:nodetypes="ccccc" />
        <path
           style="fill:#afdde9;stroke:none"
           d="m 463.47488,217.15849 c 7.49608,-13.04311 29.03187,-44.86747 29.03187,-44.86747 l -26.76968,-10.93406 -22.99926,44.86744 c 8.79867,1.84226 18.14241,7.01049 20.73707,10.93409 z"
           id="path3776"
           inkscape:connector-curvature="0"
           sodipodi:nodetypes="ccccc" />
        <path
           style="fill:url(#linearGradient3264);fill-opacity:1;stroke:none"
           d="m 463.47488,217.15849 c 7.49608,-13.04311 11.68815,-18.85187 11.68815,-18.85187 -3.53054,-9.97366 -11.73948,-13.55502 -21.11411,-13.57335 l -11.31111,21.49113 c 8.79867,1.84227 18.14241,7.01049 20.73707,10.93409 z"
           id="path3776-1"
           inkscape:connector-curvature="0"
           sodipodi:nodetypes="ccccc" />
        <path
           style="fill:#cccccc;fill-opacity:1;stroke:none"
           d="m 463.47488,217.15849 c -1.70511,-5.31177 -15.72091,-11.15759 -20.73708,-10.93409 8.79868,1.84226 18.14242,7.01049 20.73708,10.93409 z"
           id="path3776-1-2"
           inkscape:connector-curvature="0"
           sodipodi:nodetypes="ccc" />
        <path
           style="fill:#de8787;fill-opacity:1;stroke:none"
           d="m 457.05327,174.89339 c 1.73296,0.93312 6.53184,2.66607 6.53184,2.66607 -0.6331,4.5763 -7.12411,4.47941 -11.33072,3.86577 1.39703,-4.53905 1.84694,-4.18761 4.79888,-6.53184 z"
           id="path3854"
           inkscape:connector-curvature="0"
           sodipodi:nodetypes="cccc" />
        <path
           style="fill:#ffaaaa;fill-opacity:1;stroke:none"
           d="m 457.81931,175.68437 c 0,0 -1.8852,2.07371 -1.8852,2.82776 0,0.75408 2.63929,1.31965 3.77038,1.13109 1.13109,-0.18828 3.0163,-2.07369 3.0163,-2.07369 z"
           id="path3023"
           inkscape:connector-curvature="0" />
      </g>
      <path
         sodipodi:nodetypes="ccc"
         inkscape:connector-curvature="0"
         id="path4068"
         d="m 566.94811,423.54222 c -6.8588,-7.34198 -12.6238,-8.79078 -19.1929,-17.9302 6.65797,10.57305 9.05784,14.3442 19.1929,17.9302 z"
         style="fill:#333333;fill-opacity:1;stroke:none" />
      <path
         sodipodi:nodetypes="ccccc"
         inkscape:connector-curvature="0"
         id="path4213"
         d="m 538.91638,395.25795 c -0.37014,5.42875 -0.0393,10.88447 -0.0655,14.14364 -2.5139,15.1128 18.424,17.83189 24.81421,13.63556 7.07107,-5.05076 -0.50507,-14.64721 -0.50507,-14.64721 z"
         style="fill:#916f6f;fill-opacity:1;stroke:none" />
      <path
         sodipodi:nodetypes="cssssssccccssscccsccc"
         inkscape:connector-curvature="0"
         id="path4281"
         d="m 573.8006,422.16784 c 0,0 -3.2172,0.37103 -6.78135,-1.43717 -2.89266,-1.46752 -5.77007,-4.97996 -9.29008,-6.41997 -7.85714,-3.21429 -18.47909,-12.94131 -19.55357,-17.94643 -0.57767,-2.69087 -0.35768,-4.97109 1.04564,-8.19005 1.18035,-2.70753 0.22413,-5.34362 1.27842,-6.38518 1.0242,-1.01181 -0.19,-2.14864 -1.25898,-4.95667 -3.79917,-9.97983 3.03944,-13.58303 3.03944,-13.58303 7.1857,-4.46963 7.86864,3.29857 8.32151,8.49001 l -1.42594,6.0128 5.46175,0.73594 c 0,0 -0.30112,-13.46311 0.41317,-17.39168 0.71428,-3.92857 8.03571,-12.5 10.53571,-11.07142 2.5,1.42857 8.21428,5.71428 10,10.35714 1.78571,4.64286 3.68872,2.07043 3.68872,2.07043 0,0 2.38271,1.501 2.38271,-1.71329 0.76052,-6.18844 3.89234,-2.25607 4.28571,0.71429 0.96683,6.1977 2.15555,11.75508 -2.85714,16.42857 -2.46436,2.2976 0.35714,26.42857 0.35714,26.42857 l -5.71429,-2.5 c 0.72685,0.10463 -4.00298,8.22804 -3.92857,20.35714 z"
         style="fill:#dd9b9b;fill-opacity:1;stroke:none" />
      <path
         inkscape:connector-curvature="0"
         id="path4283"
         d="m 577.72917,401.8107 c -4.28571,-2.14286 -8.21428,-4.28571 -8.21428,-4.28571 0,0 1.78571,5.35714 3.57143,5.71428 1.78571,0.35714 4.64285,-1.42857 4.64285,-1.42857 z"
         style="fill:#916f6f;fill-opacity:1;stroke:none" />
      <path
         sodipodi:nodetypes="casssccscssccscssscsccccssc"
         inkscape:connector-curvature="0"
         id="path4285"
         d="m 585.94346,370.73927 c 17.95133,-31.30758 -23.9841,-41.25577 -42.5,-37.5 -12.35492,2.50608 -15.97849,20.0109 -16.36729,34.09445 -0.1491,5.40107 4.58158,13.40555 4.58158,15.54841 0,2.14286 0.35714,4.64286 -1.42858,8.21428 -1.78571,3.57143 -7.85714,5.35715 -7.85714,5.35715 l -4.28571,-2.85715 c 0,0 0.35714,3.21429 3.57143,4.28572 3.21428,1.07143 7.85714,-1.07143 7.85714,-1.07143 0,0 -1.78572,2.5 -3.21429,2.85714 -1.42857,0.35715 6.07143,0 7.14286,-1.07142 1.07143,-1.07143 -0.71428,5.89285 -0.71428,5.89285 l 5.53571,-7.32142 c 0,0 -0.41934,-4.25356 0.99374,-8.73732 1.51473,-4.80629 2.58666,-5.27419 1.51524,-9.20277 -3.58487,-6.29128 -0.30097,-19.8576 5.96419,-15.94516 1.66736,1.04122 2.98604,2.99619 3.17031,6.7406 0.094,1.9094 -0.46739,3.96021 -0.65871,7.26456 -0.0834,1.43997 5.47072,2.31508 5.47072,2.31508 0,0 1.80481,-7.9749 1.99749,-11.61888 0.0476,-0.90099 -1.18624,-3.73127 -1.13155,-4.38755 1.65865,-13.3763 12.71185,-14.9522 18.57143,-5.35714 1.78571,3.21429 3.06634,7.85343 3.06634,7.85343 l 4.11984,0.90555 c 0,0 -0.93618,-5.00898 1.56382,-6.43755 2.5,-1.42858 3.21428,-0.35715 3.21428,2.5 0,2.85714 -0.17857,7.67857 -0.17857,7.67857 z"
         style="fill:#000000;stroke:none" />
      <path
         inkscape:connector-curvature="0"
         id="path4287"
         d="m 557.85674,424.67865 c -2.65165,-5.93465 -4.29315,-10.98541 -8.46003,-14.52095 -4.16688,-3.53553 -9.84899,-6.56599 -9.84899,-6.56599 0,0 -0.25253,8.46003 0.12627,9.84899 0.37881,1.38896 0.12627,3.15673 1.51523,5.05076 1.38896,1.89404 3.15673,3.53554 6.31345,4.54569 3.15673,1.01015 10.35407,1.6415 10.35407,1.6415 z"
         style="fill:#dd9b9b;fill-opacity:1;stroke:none" />
      <path
         inkscape:connector-curvature="0"
         id="path4289"
         d="m 575.58632,392.16784 c -3.21429,-1.07143 -5.35715,-2.14285 -6.42857,-0.71428 -1.07143,1.42857 1.07142,-3.92857 1.07142,-3.92857 z"
         style="fill:#cf8686;fill-opacity:1;stroke:none" />
      <path
         inkscape:connector-curvature="0"
         id="path4291"
         d="m 572.12514,405.35948 c -5.17703,-1.13642 -12.75317,-9.47018 -12.75317,-9.47018 0,0 5.93464,9.59645 7.19733,10.73287 1.26269,1.13642 1.6415,1.38896 1.6415,1.38896 z"
         style="fill:#ffffff;stroke:none" />
      <path
         inkscape:connector-curvature="0"
         id="path4293"
         d="m 568.33707,408.1374 c 0,0 -4.92449,-4.79823 -5.3033,-5.68211 -0.37881,-0.88388 -3.91434,-6.69226 -3.91434,-6.69226 0,0 3.6618,8.46003 4.79822,10.48033 1.13642,2.02031 3.91434,5.3033 3.91434,5.3033 l 4.16688,-6.06091 z"
         style="fill:#cf8686;fill-opacity:1;stroke:none" />
      <path
         inkscape:connector-curvature="0"
         id="path4301"
         d="m 575.02933,378.96924 c -1.38896,-3.15672 -1.76777,-4.67195 -3.91434,-5.17703 -2.14657,-0.50507 -3.78807,-0.25254 -5.42957,-0.37881 -1.6415,-0.12626 -2.27284,-0.12626 -2.27284,-0.12626 0,0 2.0203,-1.51523 3.53553,-1.6415 1.51523,-0.12627 5.05076,-0.63135 6.43972,1.01015 1.38896,1.6415 1.89404,5.55584 1.89404,5.55584 z"
         style="fill:#dd9b9b;fill-opacity:1;stroke:none" />
      <path
         sodipodi:nodetypes="ccc"
         inkscape:connector-curvature="0"
         id="path4305"
         d="m 563.28631,370.25668 c -12.74264,4.05722 4.90277,27.43442 11.61676,12.87945 3.90427,-8.65341 -6.02616,-14.34983 -11.61676,-12.87945 z"
         style="fill:url(#radialGradient3262);fill-opacity:1;stroke:none" />
      <path
         sodipodi:nodetypes="csccc"
         inkscape:connector-curvature="0"
         id="path4299"
         d="m 576.05991,379.22708 c -1.22227,-3.3613 -1.9862,-5.19471 -4.88913,-6.56979 -2.90293,-1.37506 -8.25042,-0.15278 -8.25042,-0.15278 0.0672,6.25316 4.72334,12.80943 11.15335,9.16714 1.0695,-0.61115 1.9862,-2.44457 1.9862,-2.44457 z"
         style="fill:#ffffff;stroke:none" />
      <path
         sodipodi:nodetypes="cccccc"
         inkscape:connector-curvature="0"
         id="path4343"
         d="m 575.76489,373.59641 c -3.68047,-5.18751 -10.03096,-4.42912 -14.46429,-5.89285 4.17252,0.21376 9.44215,-0.58579 12.58929,2.05357 l 0.625,-0.44643 c 0.596,0.68029 1.56435,1.47831 2.5,2.41071 0.32137,1.00634 -0.38494,1.41971 -1.25,1.875 z"
         style="fill:#916f6f;fill-opacity:1;stroke:none" />
      <path
         sodipodi:nodetypes="cscscscsccc"
         inkscape:connector-curvature="0"
         id="path4355"
         d="m 554.9462,379.61591 c 0,0 -1.59357,0.28672 -3.46591,-0.13283 -1.2693,-0.28442 -2.56699,-1.50232 -2.56699,-1.50232 0,0 1.08674,-6.96647 0.8342,-9.23931 -0.25253,-2.27284 -1.4999,-4.63498 -1.4999,-4.63498 0,0 2.79061,3.37229 3.29568,4.63498 0.50508,1.26269 0.50508,-8.33376 0.50508,-8.33376 0,0 2.27284,5.55584 2.27284,8.5863 0,3.03046 2.2142,-1.41063 2.2142,-1.41063 l -0.0613,3.62482 z"
         style="fill:url(#linearGradient3260);fill-opacity:1;stroke:none" />
      <ellipse
         ry="3.6160715"
         rx="2.3214285"
         cy="368.29968"
         cx="462.76785"
         transform="matrix(1.5590386,0,0,0.89629629,-150.6455,45.90613)"
         id="path4369"
         style="fill:#333333;fill-opacity:1;stroke:none" />
      <path
         sodipodi:nodetypes="cccc"
         inkscape:connector-curvature="0"
         id="path4341"
         d="m 576.06713,379.25285 c -1.1565,-8.31367 -7.61365,-8.80086 -14.80091,-7.23836 3.37212,1.99346 10.39155,-1.99715 14.80091,7.23839 z"
         style="fill:#333333;fill-opacity:1;stroke:none" />
      <path
         sodipodi:nodetypes="ccc"
         inkscape:connector-curvature="0"
         id="path4391"
         d="m 575.89882,380.2482 c -7.95239,3.39542 -11.90968,-0.4695 -13.04824,-5.71428 -1.63425,5.49314 6.51261,12.61548 13.04824,5.71428 z"
         style="fill:#916f6f;fill-opacity:1;stroke:none" />
      <ellipse
         ry="1.3392857"
         rx="1.5178572"
         cy="366.64789"
         cx="459.91071"
         transform="matrix(1.21,0,0,1.21,11.364447,-68.172361)"
         id="path4393"
         style="fill:#ffffff;fill-opacity:1;stroke:none" />
      <path
         inkscape:connector-curvature="0"
         id="path4407"
         d="m 547.75521,374.42356 c -0.88388,-3.66181 1.13642,-2.02031 0.75762,-3.53554 -0.37881,-1.51523 -0.12627,-3.6618 -1.38896,-5.17703 -1.26269,-1.51523 -3.03046,-2.52538 -3.03046,-2.52538 0,0 1.76777,1.26269 2.27284,2.52538 0.50508,1.26269 0.63135,2.65165 0.88389,3.53554 0.25253,0.88388 0.25253,1.38895 -0.37881,2.14657 -0.63135,0.75761 -1.01015,0.63134 -0.63135,1.38896 0.37881,0.75761 1.51523,1.6415 1.51523,1.6415 z"
         style="fill:#916f6f;fill-opacity:1;stroke:none" />
      <path
         inkscape:connector-curvature="0"
         id="path4409"
         d="m 545.48237,376.94894 c -0.75761,1.01015 -0.25254,1.38896 -1.6415,1.01015 -1.38896,-0.37881 -2.0203,-1.89404 -0.75761,-1.76777 1.26269,0.12627 2.65165,0.25254 2.65165,-0.63134 0,-0.88388 -0.25254,1.38896 -0.25254,1.38896 z"
         style="fill:#916f6f;fill-opacity:1;stroke:none" />
      <path
         sodipodi:nodetypes="cccc"
         inkscape:connector-curvature="0"
         id="path4455"
         d="m 475.76489,576.45356 -2.32144,0.17857 0.0893,-3.30357 c 2.83875,-1.39865 2.68159,0.14065 2.23214,3.125 z"
         style="fill:#ffaaaa;fill-opacity:1;stroke:none" />
      <path
         sodipodi:nodetypes="ccsscc"
         inkscape:connector-curvature="0"
         id="path4457"
         d="m 503.90614,565.73927 -0.24171,1.60714 c 0,0 -2.18526,0.71429 -4.32811,-0.71428 -2.14286,-1.42857 -2.32143,-3.03572 -1.60715,-3.21429 0.71429,-0.17857 1.96429,-0.53571 1.96429,-0.53571 z"
         style="fill:#ffaaaa;fill-opacity:1;stroke:none" />
      <path
         sodipodi:nodetypes="cccc"
         inkscape:connector-curvature="0"
         id="path4455-1"
         d="m 469.29625,573.89556 h -2.85715 l 0.62501,-2.76786 c 2.83875,-1.39865 2.68159,-0.21649 2.23214,2.76786 z"
         style="fill:#ffaaaa;fill-opacity:1;stroke:none" />
      <path
         sodipodi:nodetypes="ccccc"
         inkscape:connector-curvature="0"
         id="path4455-7"
         d="m 482.02489,576.7227 -0.4017,-1.41843 -0.24904,-1.90588 c 2.31107,-2.2773 2.20461,-0.80051 2.96677,2.11967 -1.3837,-0.0182 -1.81385,0.6133 -2.31603,1.20464 z"
         style="fill:#ffaaaa;fill-opacity:1;stroke:none" />
    </g>
  </g>
</svg>
